# xmcd CD database file
#
# Track frame offsets:
#	150
#	13480
#	27631
#	41346
#	55092
#	68672
#	83300
#	97602
#	113296
#	126713
#	141050
#	156100
#	171187
#	184525
#	198513
#	210119
#	223322
#	237561
#	250841
#	264182
#
# Disc length: 3711 seconds
#
# Revision: 0
# Processed by: cddbd v1.5.2PL0 Copyright (c) Steve Scherf et al.
# Submitted via: CDex 1.51
#
DISCID=0b0e7d14
DTITLE=Louis Armstrong - 100 Hits Legends [CD5)
DYEAR=2010
DGENRE=Jazz
TTITLE0=Potato Head Blues
TTITLE1=Willie The Weaper
TTITLE2=Melancholy Blues
TTITLE3=Alligator Crawl
TTITLE4=Weary Blues
TTITLE5=Wild Man Blues
TTITLE6=Twelfth Street rag
TTITLE7=Keyhole Blues
TTITLE8=Hotter Than That
TTITLE9=A Monday Date
TTITLE10=Sugar Foot Strut
TTITLE11=Squeeze Me
TTITLE12=Heebie Jeebies
TTITLE13=Cornet Chop Suey
TTITLE14=Muskrat Ramble
TTITLE15=Who's It
TTITLE16=Oriental Strut
TTITLE17=You Made Me Love You
TTITLE18=S.O.L. Blues
TTITLE19=Jazz Lips
EXTD=YEAR: 2010
EXTT0=
EXTT1=
EXTT2=
EXTT3=
EXTT4=
EXTT5=
EXTT6=
EXTT7=
EXTT8=
EXTT9=
EXTT10=
EXTT11=
EXTT12=
EXTT13=
EXTT14=
EXTT15=
EXTT16=
EXTT17=
EXTT18=
EXTT19=
PLAYORDER=
